<?xml version="1.0" encoding="utf-8"?>
<!-- Generator: Adobe Illustrator 19.0.0, SVG Export Plug-In . SVG Version: 6.00 Build 0)  -->
<svg version="1.1" id="Capa_1" xmlns="http://www.w3.org/2000/svg" xmlns:xlink="http://www.w3.org/1999/xlink" x="0px" y="0px"
	 width="90px" height="41.6px" viewBox="0 0 90 41.6" style="enable-background:new 0 0 90 41.6;" xml:space="preserve">
<g id="XMLID_25_">
	<g id="XMLID_40_">
		<path id="XMLID_43_" d="M90,4.2h-4.8v15.1h-4.8V4.2h-4.8V0H90V4.2z"/>
	</g>
	<path id="XMLID_32_" d="M8,38.4l-3.2,3.2c-2-1.9-3.2-3.4-3.7-4.4C0.4,36,0,34.2,0,31.9V9.8c0-2.3,0.4-4.1,1.1-5.4
		c0.1-0.2,0.3-0.5,0.4-0.7C1.6,3.5,1.8,3.3,2,3c0.2-0.3,0.4-0.5,0.5-0.6C2.5,2.3,2.7,2.1,3,1.8c0.3-0.3,0.5-0.5,0.5-0.6
		C3.6,1.2,3.8,1,4.2,0.6C4.6,0.2,4.8,0,4.8,0L8,3.2C7.9,3.3,7.7,3.5,7.4,3.8C7.1,4.1,6.9,4.3,6.8,4.4C6.7,4.5,6.5,4.7,6.3,4.9
		C6.1,5.1,5.9,5.3,5.8,5.6C5.7,5.8,5.5,6,5.4,6.2C5,7.1,4.7,8.4,4.7,10v21.6c0,1.6,0.2,2.9,0.7,3.8c0.1,0.2,0.3,0.5,0.4,0.7
		c0.1,0.2,0.3,0.4,0.5,0.6c0.2,0.2,0.4,0.4,0.5,0.5c0.1,0.1,0.3,0.3,0.6,0.6C7.7,38.2,7.9,38.4,8,38.4z"/>
	<path id="XMLID_30_" d="M35,24.5c0,4.1-1,7.2-3,9.3c-2.4,2.5-5.4,3.7-9.1,3.7c-3.4,0-6.3-1.2-8.7-3.5c-0.6-0.6-1.2-1.3-1.6-2.1
		c-0.4-0.8-0.7-1.4-0.9-2.1c-0.2-0.6-0.4-1.5-0.5-2.7c-0.1-1.2-0.1-2.1-0.2-2.8c0-0.7,0-1.9,0-3.6s0-2.9,0-3.6
		c0-0.7,0.1-1.6,0.2-2.8c0.1-1.2,0.3-2.1,0.5-2.7c0.2-0.6,0.5-1.3,0.9-2.1c0.4-0.8,0.9-1.5,1.6-2.1c2.3-2.3,5.2-3.5,8.7-3.5
		c3.3,0,6,1,8.1,2.9c2.1,1.9,3.4,4.4,3.9,7.4h-5c-0.4-1.8-1.2-3.2-2.4-4.2c-1.2-1-2.7-1.5-4.5-1.5c-2,0-3.6,0.7-4.9,2
		c-0.8,0.9-1.3,2-1.6,3.3c-0.3,1.3-0.4,3.6-0.4,6.9c0,3.3,0.1,5.6,0.4,6.9c0.3,1.3,0.8,2.4,1.6,3.3c1.2,1.3,2.9,2,4.9,2
		c2.2,0,4-0.8,5.4-2.3c1.1-1.3,1.7-3,1.7-5.2v-1.9h-7v-4.3h12V24.5z"/>
	<path id="XMLID_28_" d="M62,27.4c-0.6,3.2-1.9,5.7-4,7.5c-2.1,1.8-4.7,2.7-7.7,2.7c-3.4,0-6.3-1.2-8.7-3.5
		c-0.6-0.6-1.2-1.3-1.6-2.1c-0.4-0.8-0.7-1.4-0.9-2.1c-0.2-0.6-0.4-1.5-0.5-2.7c-0.1-1.2-0.1-2.1-0.2-2.8c0-0.7,0-1.9,0-3.6
		s0-2.9,0-3.6c0-0.7,0.1-1.6,0.2-2.8c0.1-1.2,0.3-2.1,0.5-2.7c0.2-0.6,0.5-1.3,0.9-2.1c0.4-0.8,0.9-1.5,1.6-2.1
		c2.3-2.3,5.2-3.5,8.7-3.5c3.1,0,5.7,0.9,7.8,2.6c2.1,1.8,3.4,4.3,4,7.5h-5.1c-0.4-1.7-1.2-3.1-2.3-4.1c-1.1-1-2.6-1.5-4.3-1.5
		c-2,0-3.6,0.7-4.9,2c-0.8,0.9-1.3,2-1.6,3.3c-0.3,1.3-0.4,3.6-0.4,6.9c0,3.3,0.1,5.6,0.4,6.9c0.3,1.3,0.8,2.4,1.6,3.3
		c1.2,1.3,2.9,2,4.9,2c1.8,0,3.2-0.5,4.4-1.5c1.2-1,1.9-2.4,2.3-4.1H62z"/>
	<path id="XMLID_26_" d="M72.4,31.9c0,2.3-0.4,4.1-1.1,5.4c-0.6,1-1.8,2.5-3.7,4.4l-3.2-3.2c1.3-1.3,2.1-2.3,2.5-3.1
		c0.5-0.9,0.7-2.1,0.7-3.7V10c0-1.6-0.2-2.9-0.7-3.7c-0.4-0.7-1.2-1.8-2.5-3.1L67.6,0c1.9,1.9,3.1,3.3,3.7,4.4
		c0.7,1.3,1.1,3.1,1.1,5.4V31.9z"/>
</g>
</svg>
