<?xml version="1.0" encoding="utf-8"?>
<!-- Generator: Adobe Illustrator 19.0.0, SVG Export Plug-In . SVG Version: 6.00 Build 0)  -->
<svg version="1.1" xmlns="http://www.w3.org/2000/svg" xmlns:xlink="http://www.w3.org/1999/xlink" x="0px" y="0px" width="496px"
	 height="512px" viewBox="-434 129 496 512" style="enable-background:new -434 129 496 512;" xml:space="preserve">
<style type="text/css">
	.st0{display:none;}
	.st1{display:inline;}
	.st2{display:inline;fill:#FFFFFF;}
</style>
<g id="Capa_1" focusable="false" class="st0">
	<path class="st1" d="M-186,137c-137,0-248,111-248,248s111,248,248,248S62,522,62,385S-49,137-186,137z M-346,353
		c0-24.3,13.7-45.2,33.6-56c-0.7,2.6-1.6,5.2-1.6,8c0,17.7,14.3,32,32,32s32-14.3,32-32c0-2.8-0.9-5.4-1.6-8
		c19.9,10.8,33.6,31.7,33.6,56c0,35.3-28.7,64-64,64S-346,388.3-346,353z M-122,529h-128c-21.2,0-21.2-32,0-32h128
		C-100.8,497-100.8,529-122,529z M-90,417c-35.3,0-64-28.7-64-64c0-24.3,13.7-45.2,33.6-56c-0.7,2.6-1.6,5.2-1.6,8
		c0,17.7,14.3,32,32,32s32-14.3,32-32c0-2.8-0.9-5.4-1.6-8c19.9,10.8,33.6,31.7,33.6,56C-26,388.3-54.7,417-90,417z"/>
</g>
<g id="Capa_1_copia" focusable="false" class="st0">
	<path class="st1" d="M-253.3,146.3c-131.9,37.2-208.6,174.1-171.4,306s174.1,208.6,306,171.4c131.9-37.2,208.6-174.1,171.4-306
		S-121.4,109.1-253.3,146.3z"/>
	<circle class="st2" cx="-272.5" cy="333.5" r="33.5"/>
	<circle class="st2" cx="-88" cy="281.5" r="33.5"/>
	<path class="st2" d="M-53,440.7L-53,440.7c-18.2,40.7-53.1,70.9-95.9,82.9c-42.8,12.1-88.4,4.6-125.1-20.6
		c-17.5-12,0.6-38.3,18.1-26.4c28.9,19.8,64.6,25.6,98.3,16.1s61.1-33.2,75.4-65.1C-73.8,408.4-44.5,421.3-53,440.7z"/>
	<path class="st2" d="M-150.5,711.5c-4.7,0-9.5-1.3-13.8-4.1c-11.8-7.6-15.3-23.4-7.6-35.3l133.5-207.4c7.6-11.8,23.4-15.3,35.3-7.6
		c11.8,7.6,15.3,23.4,7.6,35.3l-133.5,207.4C-133.9,707.3-142.2,711.5-150.5,711.5z"/>
	<path class="st2" d="M-166.5,835c-14.1,0-27.4-8.5-32.9-22.4l-91-229.2c-7.2-18.2,1.7-38.8,19.9-46c18.2-7.2,38.8,1.7,46,19.9
		l91,229.2c7.2,18.2-1.7,38.8-19.9,46C-157.8,834.2-162.2,835-166.5,835z"/>
</g>
<g id="Capa_1_copia_2" focusable="false" class="st0">
	<path class="st1" d="M52.7,317.7c-37.2-131.9-174.1-208.6-306-171.4c-131.9,37.2-208.6,174.1-171.4,306
		c21.8,77.2,77.8,135.5,146.9,163.1l-12.7-32c-7.2-18.2,1.7-38.8,19.9-46c18.2-7.2,38.8,1.7,46,19.9l21.4,53.9
		c0,0,9.4,21.3,33.5,21.3c23.9,0,38.7-24,38.7-24l92.5-143.7c7.6-11.8,23.4-15.3,35.3-7.6c11.8,7.6,15.3,23.4,7.6,35.3l-70.7,109.9
		C32.6,547.9,84.6,430.9,52.7,317.7z M-88,248c18.5,0,33.5,15,33.5,33.5S-69.5,315-88,315s-33.5-15-33.5-33.5S-106.5,248-88,248z
		 M-306,333.5c0-18.5,15-33.5,33.5-33.5s33.5,15,33.5,33.5s-15,33.5-33.5,33.5S-306,352-306,333.5z M-53,440.7L-53,440.7
		c-18.2,40.7-53.1,70.9-95.9,82.9c-42.8,12.1-88.4,4.6-125.1-20.6c-17.5-12,0.6-38.3,18.1-26.4c28.9,19.8,64.6,25.6,98.3,16.1
		s61.1-33.2,75.4-65.1C-73.8,408.4-44.5,421.3-53,440.7z"/>
</g>
<g id="Capa_1_copia_3" focusable="false">
	<path d="M52.7,317.7c-37.2-131.9-174.1-208.6-306-171.4c-131.9,37.2-208.6,174.1-171.4,306c21.8,77.2,77.8,135.5,146.9,163.1
		l-12.7-32c-7.2-18.2,1.7-38.8,19.9-46c18.2-7.2,38.8,1.7,46,19.9l9.6,24.7c0,0,10,29,42,29c40,0,66-39,66-39l68.5-107.2
		c7.6-11.8,23.4-15.3,35.3-7.6c11.8,7.6,15.3,23.4,7.6,35.3l-70.7,109.9C32.6,547.9,84.6,430.9,52.7,317.7z M-88,248
		c18.5,0,33.5,15,33.5,33.5S-69.5,315-88,315s-33.5-15-33.5-33.5S-106.5,248-88,248z M-306,333.5c0-18.5,15-33.5,33.5-33.5
		s33.5,15,33.5,33.5s-15,33.5-33.5,33.5S-306,352-306,333.5z M-53,440.7L-53,440.7c-18.2,40.7-53.1,70.9-95.9,82.9
		c-42.8,12.1-88.4,4.6-125.1-20.6c-17.5-12,0.6-38.3,18.1-26.4c28.9,19.8,64.6,25.6,98.3,16.1s61.1-33.2,75.4-65.1
		C-73.8,408.4-44.5,421.3-53,440.7z"/>
</g>
<g id="Capa_3" class="st0">
	<path class="st1" d="M-130.7,286.3c17-4.8,34.7,5.1,39.5,22.1c4.8,17-5.1,34.7-22.1,39.5c-17,4.8-34.7-5.1-39.5-22.1
		C-157.6,308.7-147.7,291.1-130.7,286.3z"/>
	<path class="st1" d="M-284.7,329.7c17-4.8,34.7,5.1,39.5,22.1c4.8,17-5.1,34.7-22.1,39.5c-17,4.8-34.7-5.1-39.5-22.1
		C-311.6,352.2-301.7,334.5-284.7,329.7z"/>
</g>
<g id="Capa_4" class="st0">
	<path class="st1" d="M52.7,317.7c-37.2-131.9-174.1-208.6-306-171.4c-131.9,37.2-208.6,174.1-171.4,306
		c37.2,131.9,174.1,208.6,306,171.4C13.2,586.5,89.9,449.6,52.7,317.7z M-304.5,441.8c-33.9-9.9-53.4-45.5-43.5-79.4
		c6.8-23.3,25.8-39.6,47.9-44.4c-1.4,2.3-3,4.5-3.8,7.2c-5,17,4.8,34.7,21.8,39.7s34.7-4.8,39.7-21.8c0.8-2.7,0.6-5.4,0.7-8.1
		c16.1,15.9,23.4,39.8,16.6,63.2C-235,432.2-270.6,451.7-304.5,441.8z M-51,440.7L-51,440.7c-18.2,40.7-53.1,70.9-95.9,82.9
		c-42.8,12.1-88.4,4.6-125.1-20.6c-17.5-12,0.6-38.3,18.1-26.4c28.9,19.8,64.6,25.6,98.3,16.1s61.1-33.2,75.4-65.1
		C-71.8,408.4-42.5,421.3-51,440.7z M-40.3,346.2c-9.9,33.9-45.5,53.4-79.4,43.5c-33.9-9.9-53.4-45.5-43.5-79.4
		c6.8-23.3,25.8-39.6,47.9-44.4c-1.4,2.3-3,4.5-3.8,7.2c-5,17,4.8,34.7,21.8,39.7c17,5,34.7-4.8,39.7-21.8c0.8-2.7,0.6-5.4,0.7-8.1
		C-40.8,299-33.5,322.9-40.3,346.2z"/>
</g>
</svg>
